<?xml version="1.0"?>
<svg xmlns="http://www.w3.org/2000/svg" xmlns:xlink="http://www.w3.org/1999/xlink" xmlns:svgjs="http://svgjs.com/svgjs" version="1.1" width="512" height="512" x="0" y="0" viewBox="0 0 62 62" style="enable-background:new 0 0 512 512" xml:space="preserve"><g><linearGradient xmlns="http://www.w3.org/2000/svg" id="SVGID_1_" gradientUnits="userSpaceOnUse" x1="31" x2="31" y1="62" y2="0"><stop offset="0" stop-color="#9f2fff"/><stop offset="1" stop-color="#0bb1d3"/></linearGradient><path xmlns="http://www.w3.org/2000/svg" d="m12 48h-6c-1.103 0-2 .897-2 2v2c0 1.103.897 2 2 2h6c1.103 0 2-.897 2-2v-2c0-1.103-.897-2-2-2zm-6 4v-2h6l.001 2zm44 2h6c1.103 0 2-.897 2-2v-2c0-1.103-.897-2-2-2h-6c-1.103 0-2 .897-2 2v2c0 1.103.897 2 2 2zm0-4h6v2h-6zm10-16c1.103 0 2-.897 2-2v-2c0-1.103-.897-2-2-2h-1.22l-.621-2.485c-.222-.892-1.02-1.515-1.94-1.515h-.219v-6h2v-2h-2v-2h2v-2h-2v-2h-2v2h-2v2h2v2h-2v2h2v6h-.219c-.92 0-1.718.623-1.94 1.515l-.621 2.485h-4.22v-12.184c1.161-.414 2-1.514 2-2.816 0-1.654-1.346-3-3-3s-3 1.346-3 3c0 1.302.839 2.402 2 2.816v12.184h-1.465l-15.535-23.303v-2.697c0-1.103-.897-2-2-2h-10c-1.103 0-2 .897-2 2v2c0 1.103.897 2 2 2v12h-4c-1.103 0-2 .897-2 2v10c0 1.103.897 2 2 2h10c1.103 0 2-.897 2-2v-10c0-1.103-.897-2-2-2h-4v-11.173l16 24.471v.702c0 1.103.897 2 2 2h.153l1.667 10h-3.82v-8c0-1.103-.897-2-2-2h-26c-1.103 0-2 .897-2 2v8h-2c-1.103 0-2 .897-2 2v4c0 6.617 5.383 12 12 12h38c6.617 0 12-5.383 12-12v-4c0-1.103-.897-2-2-2h-1.82l1.667-10zm-14-22c.552 0 1 .449 1 1s-.448 1-1 1-1-.449-1-1 .448-1 1-1zm-23.999 18h-10.001v-10h10zm31.78-4h2.438l.5 2h-3.439zm-31.664-16.531-2.268-3.469h5.738zm5.128-2.299 2.991 4.487-6.981-.498zm4.395 6.592.474.71-4.066 4.066-3.452-5.279zm1.605 2.408 3.027 4.54-7.027-.541zm4.436 6.655.19.285-3.714 4.775-3.67-5.613zm1.359 2.038 2.092 3.137h-4.532zm-23.04-22.863h10v2h-10zm20 28h24l.001 2h-24.001zm2.847 8h2.153v2h-1.82zm-17.847 8v4h-1.279l-1.334-4zm2 0h4v4h-4zm6 0h4v4h-4zm6 0h4v4h-4zm6 0h2.613l-1.334 4h-1.279zm-9-2h-12v-8h12zm-26-8h12v8h-12zm54 14c0 5.514-4.486 10-10 10h-38c-5.514 0-10-4.486-10-10l-.001-4h.001 14.28l1.544 4.632c.272.818 1.034 1.368 1.897 1.368h22.559c.862 0 1.625-.55 1.896-1.367l1.544-4.633h14.28zm-3.18-10h-1.82v-2h2.153zm.666-4h-2.486c-1.103 0-2 .897-2 2v2c0 1.103.897 2 2 2h1.486l-.333 2h-16.306l-.333-2h1.486c1.103 0 2-.897 2-2v-2c0-1.103-.897-2-2-2h-2.486l-.333-2h19.639zm-10.486 6h2c1.103 0 2-.897 2-2v-2c0-1.103-.897-2-2-2h-2c-1.103 0-2 .897-2 2v2c0 1.103.897 2 2 2zm0-4h2l.001 2h-2.001z" fill="url(#SVGID_1_)" data-original="url(#SVGID_1_)" style=""/></g></svg>
